<svg viewBox="0 0 800 600" xmlns="http://www.w3.org/2000/svg">
	<rect x="0" y="0" width="800" height="600" fill="lightblue" stroke="none"/>
	<path d="M 531 300 C 531.5908846518073 327.81843806224225, 572.9002115528165 324.58001841322937, 563.9284778072717 346.5377116147373 C 554.956744061727 368.49540481624524, 520.776818950375 352.8036241561143, 501.09422084818436 373.1923106716931 C 481.4116227459938 393.5809971872719, 510.6170971375318 396.15491007416193, 498.31981746663644 414.5 C 486.0225377957411 432.84508992583807, 477.75376046126365 418.8231171774412, 460.10328861186645 434.3426104244867 C 442.45281676246924 449.86210367153217, 449.265897885539 440.2834838946547, 439.4849113019791 466.2316441568182 C 429.70392471841916 492.17980441898175, 444.41220494215247 502.20237915678456, 427.5 520.8364779650318 C 410.58779505784753 539.470576773279, 411.9838932341233 541.416631577826, 383.11089482813753 528.3453068509757 C 354.2378964221518 515.2739821241254, 356.18994042848874 466.56898759749015, 331.2566719800475 477.26539554219744 C 306.32340353160623 487.9618034869047, 323.23412617183527 538.591959972285, 300 564 C 276.76587382816473 589.408040027715, 275.25424772711597 582.2401349779709, 253.80958474059653 561.9588623012473 C 232.3649217540771 541.6775896245238, 253.36066546711416 507.95305018171354, 228.51779004493523 496.39575774425487 C 203.6749146227563 484.8384653067962, 186.77273961433124 537.9993082430728, 171.00000000000006 523.4345541763852 C 155.22726038566887 508.86980010969756, 195.61457789616404 465.89652791676406, 175.9419913304979 447.8465775219628 C 156.26940476483176 429.7966271271615, 138.3553665534685 467.1220261169699, 105.4247114477796 463.26805286038103 C 72.4940563420907 459.4140796037922, 60.235402652389126 464.895691860542, 66.17314097820156 435 C 72.11087930401399 405.104308139458, 125.0889460664495 391.7693612264556, 125.21717253382104 363.6157466585744 C 125.34539900119259 335.46213209069316, 80.16571429625301 360.2393421046349, 66.60056253610671 341.15461810706256 C 53.03541077596039 322.06989410949024, 71.72761487469747 323.23412617183527, 80 300 C 88.27238512530253 276.76587382816473, 87.65772251619649 285.35740594012645, 94.17517962044849 263.70753086761164 C 100.69263672470049 242.05765579509682, 90.38008940056221 246.0460090185674, 101.72485701417332 227.83374975828391 C 113.06962462778444 209.62149049800044, 119.16063535601664 220.49589035739547, 131.99107166581888 203.00000000000006 C 144.8215079756211 185.50410964260465, 128.80083046966624 181.78051516205736, 144.49297804684744 169.51411523363254 C 160.18512562402864 157.24771530520772, 177.69612367047716 192.33486965180725, 184.2982302564229 162.112000238584 C 190.90033684236863 131.88913082536072, 150.9767991174968 80.12157328721958, 166.4999999999999 68.77121718955493 C 182.02320088250298 57.42086109189029, 208.7032798033191 126.99677259039527, 236.04223319809984 124.27747991303517 C 263.38118659288057 121.55818723567506, 238.44251460869896 61.89015223893179, 257.629844649269 59.70690826502124 C 276.817174689839 57.52366429111069, 276.2449292951639 107.54584557108281, 299.99999999999994 117 C 323.755070704836 126.45415442891719, 313.3166298189157 100.87763940940378, 336.81341366538913 91.22075636141187 C 360.31019751186255 81.56387331341996, 353.9666369211947 83.49121533638876, 378.322612821578 84.81038984002694 C 402.67858872196126 86.12956434366512, 397.33727506100814 83.68837490115436, 418 95.61800470687248 C 438.66272493899186 107.5476345125906, 424.2257760525514 112.24163979593007, 447.1983626182175 124.575822525754 C 470.17094918388364 136.91000525557794, 473.2632768115821 121.90469389734517, 494.5752885522204 136.73194713961894 C 515.8873002928586 151.5592003818927, 521.3570622171331 145.13036856943495, 518.2384017536784 173.9999999999999 C 515.1197412902237 202.86963143056482, 471.0636155097673 209.0211764859898, 484.179753674038 232.96405190816878 C 497.2958918383087 256.9069273303478, 547.9127884034588 233.69880031304714, 561.9588623012473 253.8095847405965 C 576.0049361990359 273.9203691681459, 530.4091153481927 272.18156193775775, 531 300 Z" fill="#E6C89E" stroke="#BFA78A" stroke-width="40"/>
	<polygon points="531 300 563.9284778072717 346.5377116147373 501.09422084818436 373.1923106716931 498.31981746663644 414.5 460.10328861186645 434.3426104244867 439.4849113019791 466.2316441568182 427.5 520.8364779650318 383.11089482813753 528.3453068509757 331.2566719800475 477.26539554219744 300 564 253.80958474059653 561.9588623012473 228.51779004493523 496.39575774425487 171.00000000000006 523.4345541763852 175.9419913304979 447.8465775219628 105.4247114477796 463.26805286038103 66.17314097820156 435 125.21717253382104 363.6157466585744 66.60056253610671 341.15461810706256 80 300 94.17517962044849 263.70753086761164 101.72485701417332 227.83374975828391 131.99107166581888 203.00000000000006 144.49297804684744 169.51411523363254 184.2982302564229 162.112000238584 166.4999999999999 68.77121718955493 236.04223319809984 124.27747991303517 257.629844649269 59.70690826502124 299.99999999999994 117 336.81341366538913 91.22075636141187 378.322612821578 84.81038984002694 418 95.61800470687248 447.1983626182175 124.575822525754 494.5752885522204 136.73194713961894 518.2384017536784 173.9999999999999 484.179753674038 232.96405190816878 561.9588623012473 253.8095847405965" fill="none" stroke="black"/>
</svg>
