<svg viewBox="0 0 200 200" xmlns='http://www.w3.org/2000/svg' xmlns:xlink='http://www.w3.org/1999/xlink'>
<rect x="0" y="0" width="200" height="200" fill="lightblue" stroke="none"/>
<path id="island" d="M 187 100 C 187.75175409662873 109.57656401311873, 175.86533537915767 116.91199900320969, 167.6578686965854 124.62545031944815 C 159.45040201401315 132.33890163568663, 150.79424032645576 128.42350461923274, 145.96266658713867 138.56725658119234 C 141.13109284782158 148.71100854315193, 150.15726992349056 168.6794682515064, 143.5 175.34421012924616 C 136.84273007650944 182.00895200698594, 124.4325248966239 169.62719154272554, 112.67631696968593 171.89096596989117 C 100.92010904274795 174.1547403970568, 95.45422375924733 186.83845883698774, 84.71896036531014 186.6630822650743 C 73.98369697137295 186.48770569316088, 67.58766760847051 178.57632789610344, 59.00000000000002 171.01408311032398 C 50.41233239152953 163.45183832454452, 48.803642779689405 157.51394863636597, 41.78062232295768 148.851858336177 C 34.75760186622596 140.18976803598804, 27.441022180932965 137.47400327661458, 23.884897716341428 127.70363160937919 C 20.32877325174989 117.93325994214379, 21.74473771011382 110.26060429977008, 24 100.00000000000001 C 26.25526228988618 89.73939570022995, 30.992249146685605 85.65675169001503, 35.16120916577232 76.40061011052886 C 39.33016918485904 67.14446853104269, 40.37704192858805 63.7218459890104, 44.84480009543358 53.71929210256917 C 49.312558262279104 43.71673821612794, 48.58746778662323 29.146353685585503, 57.499999999999964 26.387840678322732 C 66.41253221337669 23.62932767105996, 78.0249014130462 41.552103901922514, 89.40746116231725 39.92672706625531 C 100.7900209115883 38.301350230588106, 103.39429097881865 21.66155410060079, 114.4127987463552 18.26095649998672 C 125.43130651389174 14.86035889937265, 135.43226643661498 16.60341707429233, 144.5 22.923739063184968 C 153.56773356338502 29.244061052077605, 155.87164692059193 39.09878820631601, 159.75146656328027 49.86256644444991 C 163.63128620596862 60.62634468258381, 158.44939152609783 66.71514354274447, 163.89909821344176 76.74263025385449 C 169.3488049007857 86.7701169649645, 186.24824590337127 90.42343598688127, 187 100 Z" fill="#BFA78A" stroke="maroon"/>
<script type="application/javascript" xlink:href="island.js"></script>
</svg>
